<?xml version="1.0" encoding="UTF-8"?>
<svg width="512" height="512" viewBox="0 0 512 512" fill="none" xmlns="http://www.w3.org/2000/svg">
  <!-- Background Circle -->
  <circle cx="256" cy="256" r="248" fill="#4F46E5"/>
  
  <!-- Dollar Sign -->
  <path d="M296 400H216C207.2 400 200 392.8 200 384V352.8C171.2 343.2 148.8 324 136 298.4C132 290.4 135.2 280.8 143.2 276.8C151.2 272.8 160.8 276 164.8 284C174.4 302.4 190.4 316 210.4 322.4C222.4 326.4 235.2 328 248 328C284.8 328 312 306.4 312 280C312 258.4 297.6 244.8 252.8 234.4C198.4 221.6 160 200 160 152C160 116 184 86.4 216 74.4V40C216 31.2 223.2 24 232 24H312C320.8 24 328 31.2 328 40V71.2C356.8 80.8 379.2 100 392 125.6C396 133.6 392.8 143.2 384.8 147.2C376.8 151.2 367.2 148 363.2 140C353.6 121.6 337.6 108 317.6 101.6C305.6 97.6 292.8 96 280 96C243.2 96 216 117.6 216 144C216 165.6 230.4 179.2 275.2 189.6C329.6 202.4 368 224 368 272C368 308 344 337.6 312 349.6V384C312 392.8 304.8 400 296 400Z" fill="white"/>
  
  <!-- Outer Ring -->
  <circle cx="256" cy="256" r="248" stroke="white" stroke-width="16" fill="none"/>
</svg> 